<mxfile host="app.diagrams.net" modified="2024-01-18T08:45:16.971Z" agent="Mozilla/5.0 (Windows NT 10.0; Win64; x64; rv:121.0) Gecko/20100101 Firefox/121.0" version="22.1.18" etag="8bKyrKEAWGtPpj2w7sO6" type="github">
  <diagram name="Page-1" id="2QCozW_zHm1IqlnccC_A">
    <mxGraphModel>
      <root>
        <mxCell id="0" />
        <mxCell id="1" parent="0" />
      </root>
    </mxGraphModel>
  </diagram>
</mxfile>
